<svg width="100%" height="100%" viewBox="0 0 800 600" xmlns="http://www.w3.org/2000/svg">
<rect x="0" y="0" width="800" height="600" fill="#bfe3f7"/>
<circle cx="680" cy="90" r="38" fill="#ffd93d" stroke="#e0a800" stroke-width="3"/>
<g stroke="#e0a800" stroke-width="3" stroke-linecap="round">
<line x1="680" y1="30" x2="680" y2="15"/>
<line x1="680" y1="150" x2="680" y2="165"/>
<line x1="740" y1="90" x2="755" y2="90"/>
<line x1="620" y1="90" x2="605" y2="90"/>
<line x1="722" y1="48" x2="733" y2="37"/>
<line x1="638" y1="132" x2="627" y2="143"/>
<line x1="722" y1="132" x2="733" y2="143"/>
<line x1="638" y1="48" x2="627" y2="37"/>
</g>
<path d="M80 50 l4 10 l10 1 l-8 7 l3 10 l-9 -6 l-9 6 l3 -10 l-8 -7 l10 -1 z" fill="#fff5c2" stroke="#e0a800" stroke-width="1.2"/>
<path d="M160 130 l4 10 l10 1 l-8 7 l3 10 l-9 -6 l-9 6 l3 -10 l-8 -7 l10 -1 z" fill="#fff5c2" stroke="#e0a800" stroke-width="1.2"/>
<path d="M260 40 l4 10 l10 1 l-8 7 l3 10 l-9 -6 l-9 6 l3 -10 l-8 -7 l10 -1 z" fill="#fff5c2" stroke="#e0a800" stroke-width="1.2"/>
<path d="M360 100 l4 10 l10 1 l-8 7 l3 10 l-9 -6 l-9 6 l3 -10 l-8 -7 l10 -1 z" fill="#fff5c2" stroke="#e0a800" stroke-width="1.2"/>
<path d="M460 30 l4 10 l10 1 l-8 7 l3 10 l-9 -6 l-9 6 l3 -10 l-8 -7 l10 -1 z" fill="#fff5c2" stroke="#e0a800" stroke-width="1.2"/>
<path d="M560 140 l4 10 l10 1 l-8 7 l3 10 l-9 -6 l-9 6 l3 -10 l-8 -7 l10 -1 z" fill="#fff5c2" stroke="#e0a800" stroke-width="1.2"/>
<path d="M120 210 l4 10 l10 1 l-8 7 l3 10 l-9 -6 l-9 6 l3 -10 l-8 -7 l10 -1 z" fill="#fff5c2" stroke="#e0a800" stroke-width="1.2"/>
<path d="M700 210 l4 10 l10 1 l-8 7 l3 10 l-9 -6 l-9 6 l3 -10 l-8 -7 l10 -1 z" fill="#fff5c2" stroke="#e0a800" stroke-width="1.2"/>
<path d="M40 140 l4 10 l10 1 l-8 7 l3 10 l-9 -6 l-9 6 l3 -10 l-8 -7 l10 -1 z" fill="#fff5c2" stroke="#e0a800" stroke-width="1.2"/>
<path d="M300 170 l4 10 l10 1 l-8 7 l3 10 l-9 -6 l-9 6 l3 -10 l-8 -7 l10 -1 z" fill="#fff5c2" stroke="#e0a800" stroke-width="1.2"/>
<path d="M40 460 Q100 430 180 435 Q260 430 320 460 Q260 500 180 498 Q100 500 40 460 Z" fill="#9be8a8" stroke="#3d9950" stroke-width="4" stroke-linejoin="round"/>
<path d="M110 450 q30 -8 60 0" stroke="#3d9950" stroke-width="2" fill="none"/>
<path d="M220 445 q30 -8 60 4" stroke="#3d9950" stroke-width="2" fill="none"/>
<path d="M480 460 Q540 430 620 435 Q700 430 760 460 Q700 500 620 498 Q540 500 480 460 Z" fill="#9be8a8" stroke="#3d9950" stroke-width="4" stroke-linejoin="round"/>
<path d="M550 450 q30 -8 60 0" stroke="#3d9950" stroke-width="2" fill="none"/>
<path d="M660 445 q30 -8 60 4" stroke="#3d9950" stroke-width="2" fill="none"/>
<g transform="translate(180,340) scale(0.9)">
<path d="M-8 96 L-18 158" stroke="#f2c48a" stroke-width="8" stroke-linecap="round"/>
<path d="M8 96 L18 158" stroke="#f2c48a" stroke-width="8" stroke-linecap="round"/>
<path d="M-24 70 L24 70 L20 100 L4 100 L0 80 L-4 100 L-20 100 Z" fill="#4a90d9" stroke="#2a5f96" stroke-width="4" stroke-linejoin="round"/>
<path d="M-26 12 Q-30 15 -30 22 L-14 35 L-14 70 L14 70 L14 35 L30 22 Q30 15 26 12 L14 8 Q0 16 -14 8 Z" fill="#5aa3e0" stroke="#2a5f96" stroke-width="4" stroke-linejoin="round"/>
<path d="M-14 25 L-50 50" stroke="#f2c48a" stroke-width="6" stroke-linecap="round"/>
<path d="M14 25 L46 18" stroke="#f2c48a" stroke-width="6" stroke-linecap="round"/>
<circle cx="0" cy="-14" r="29" fill="#f9d9ab" stroke="#c9950a" stroke-width="4"/>
<path d="M-27 -22 q5 -23 27 -23 q22 0 27 23 q-13 -10 -27 -4 q-14 -6 -27 4 Z" fill="#ffd166" stroke="#d99a1f" stroke-width="3" stroke-linejoin="round"/>
<path d="M-25 -30 q-6 -6 -2 -13" stroke="#d99a1f" stroke-width="3" fill="none" stroke-linecap="round"/>
<path d="M25 -30 q6 -6 2 -13" stroke="#d99a1f" stroke-width="3" fill="none" stroke-linecap="round"/>
<circle cx="-11" cy="-14" r="4.5" fill="#4caf50" stroke="#2e7d32" stroke-width="1"/>
<circle cx="11" cy="-14" r="4.5" fill="#4caf50" stroke="#2e7d32" stroke-width="1"/>
<circle cx="-11" cy="-14" r="1.8" fill="#111"/>
<circle cx="11" cy="-14" r="1.8" fill="#111"/>
<circle cx="-18" cy="-3" r="5.5" fill="#ff9a9a" opacity="0.6"/>
<circle cx="18" cy="-3" r="5.5" fill="#ff9a9a" opacity="0.6"/>
<path d="M-11 4 Q0 15 11 4" stroke="#a5540f" stroke-width="3" fill="none" stroke-linecap="round"/>
</g>
<rect x="130" y="380" width="90" height="60" rx="6" fill="#2b2f45" stroke="#111" stroke-width="3"/>
<rect x="138" y="388" width="74" height="36" fill="#7fd8ff"/>
<text x="175" y="410" font-size="12" font-family="sans-serif" fill="#1b2350" text-anchor="middle" font-weight="bold">ZAWA SHOW</text>
<path d="M170 440 L175 452 L180 440" fill="#2b2f45"/><g transform="translate(620,340) scale(0.9)">
<path d="M-28 100 L28 100 L13 10 L-13 10 Z" fill="#ff8fb1" stroke="#c94f75" stroke-width="4" stroke-linejoin="round"/>
<path d="M-13 32 L-48 14" stroke="#e6b98a" stroke-width="6" stroke-linecap="round"/>
<path d="M13 32 L46 50" stroke="#e6b98a" stroke-width="6" stroke-linecap="round"/>
<path d="M-8 100 L-17 150" stroke="#c94f75" stroke-width="6" stroke-linecap="round"/>
<path d="M8 100 L17 150" stroke="#c94f75" stroke-width="6" stroke-linecap="round"/>
<circle cx="0" cy="-12" r="27" fill="#eec89a" stroke="#c94f75" stroke-width="4"/>
<g fill="#6b4327" stroke="#4a2c17" stroke-width="2.4">
<circle cx="-22" cy="-25" r="8"/>
<circle cx="-28" cy="-11" r="8"/>
<circle cx="-28" cy="4" r="7"/>
<circle cx="-20" cy="16" r="6"/>
<circle cx="22" cy="-25" r="8"/>
<circle cx="28" cy="-11" r="8"/>
<circle cx="28" cy="4" r="7"/>
<circle cx="20" cy="16" r="6"/>
<path d="M-18 -34 q18 -12 36 0" stroke="#4a2c17" stroke-width="2.6" fill="#6b4327"/>
</g>
<circle cx="-9" cy="-12" r="4.2" fill="#000"/>
<circle cx="9" cy="-12" r="4.2" fill="#000"/>
<circle cx="-16" cy="-2" r="5.5" fill="#ff9a9a" opacity="0.6"/>
<circle cx="16" cy="-2" r="5.5" fill="#ff9a9a" opacity="0.6"/>
<path d="M-9 6 Q0 15 9 6" stroke="#a5540f" stroke-width="2.6" fill="none" stroke-linecap="round"/>
</g>
<g transform="translate(660,410)">
<path d="M-30 -20 L30 -20 L30 20 L-30 20 Z" fill="#e85d5d" stroke="#a03030" stroke-width="3"/>
<line x1="0" y1="-20" x2="0" y2="20" stroke="#a03030" stroke-width="2"/>
<text x="-15" y="4" font-size="16" font-family="sans-serif" fill="#fff">中</text>
<text x="10" y="4" font-size="16" font-family="sans-serif" fill="#fff">文</text>
</g><path d="M280 300 Q400 200 520 300" stroke="#ffe08a" stroke-width="3" fill="none" stroke-dasharray="2 10" stroke-linecap="round"/>
<circle cx="330" cy="250" r="4" fill="#ffe08a"/>
<circle cx="400" cy="230" r="5" fill="#ffe08a"/>
<circle cx="470" cy="250" r="4" fill="#ffe08a"/>
</svg>